<?xml version="1.0" encoding="UTF-8" standalone="no"?>
<!-- Created with Inkscape (http://www.inkscape.org/) -->
<svg
   xmlns:dc="http://purl.org/dc/elements/1.1/"
   xmlns:cc="http://web.resource.org/cc/"
   xmlns:rdf="http://www.w3.org/1999/02/22-rdf-syntax-ns#"
   xmlns:svg="http://www.w3.org/2000/svg"
   xmlns="http://www.w3.org/2000/svg"
   xmlns:sodipodi="http://sodipodi.sourceforge.net/DTD/sodipodi-0.dtd"
   xmlns:inkscape="http://www.inkscape.org/namespaces/inkscape"
   id="svg2656"
   sodipodi:version="0.32"
   inkscape:version="0.44"
   width="250"
   height="290"
   version="1.0"
   sodipodi:docname="espiral.svg"
   sodipodi:docbase="/home/alrferreira/Desktop">
  <metadata
     id="metadata2661">
    <rdf:RDF>
      <cc:Work
         rdf:about="">
        <dc:format>image/svg+xml</dc:format>
        <dc:type
           rdf:resource="http://purl.org/dc/dcmitype/StillImage" />
      </cc:Work>
    </rdf:RDF>
  </metadata>
  <defs
     id="defs2659" />
  <sodipodi:namedview
     inkscape:window-height="619"
     inkscape:window-width="944"
     inkscape:pageshadow="2"
     inkscape:pageopacity="0.0"
     guidetolerance="10.0"
     gridtolerance="10.0"
     objecttolerance="10.0"
     borderopacity="1.0"
     bordercolor="#666666"
     pagecolor="#ffffff"
     id="base"
     width="250px"
     height="290px"
     inkscape:zoom="0.38674898"
     inkscape:cx="372.04724"
     inkscape:cy="111.18323"
     inkscape:window-x="0"
     inkscape:window-y="49"
     inkscape:current-layer="svg2656" />
  <g
     transform="matrix(2.5235629,0,0,-2.4727718,-673.36678,1104.6402)"
     xml:space="preserve"
     style="font-style:normal;font-variant:normal;font-weight:normal;font-stretch:normal;letter-spacing:normal;word-spacing:normal;text-anchor:start;opacity:0.54961832;color:#000000;fill:#ffffff;fill-opacity:1;fill-rule:nonzero;stroke:none;stroke-width:0;stroke-linecap:butt;stroke-linejoin:miter;marker:none;marker-start:none;marker-mid:none;marker-end:none;stroke-miterlimit:10.43299961;stroke-dasharray:none;stroke-dashoffset:0;stroke-opacity:1;visibility:visible;display:inline;overflow:visible"
     id="g2902">
<path
   d="M 325.54,385.09 L 325.46,385.09 L 325.39,385.08 L 325.32,385.08 L 325.25,385.07 L 325.19,385.07 L 325.14,385.06 L 325.09,385.05 L 325.05,385.04 L 325.01,385.03 L 324.97,385.02 L 324.95,385.01 L 324.92,384.99 L 324.9,384.98 L 324.89,384.96 L 324.88,384.94 L 324.87,384.93 L 324.87,384.91 L 324.88,384.89 L 324.89,384.87 L 324.9,384.85 L 324.91,384.83 L 324.93,384.81 L 324.96,384.79 L 324.98,384.76 L 325.02,384.74 L 325.05,384.72 L 325.09,384.69 L 325.13,384.67 L 325.18,384.65 L 325.23,384.62 L 325.28,384.6 L 325.33,384.57 L 325.39,384.54 L 325.45,384.52 L 325.52,384.49 L 325.58,384.47 L 325.65,384.44 L 325.72,384.41 L 325.8,384.39 L 325.87,384.36 L 325.95,384.33 L 326.04,384.31 L 326.2,384.25 L 326.38,384.2 L 326.57,384.15 L 326.76,384.1 L 326.96,384.05 L 327.16,384 L 327.37,383.96 L 327.58,383.92 L 327.79,383.87 L 328.01,383.84 L 328.23,383.8 C 328.88,384.31 329.46,384.82 329.99,385.32 C 328.53,384.96 327.04,384.95 325.54,385.09 z "
   style="color:#000000;fill:#ffffff;fill-opacity:1;fill-rule:nonzero;stroke:none;stroke-width:0;stroke-linecap:butt;stroke-linejoin:miter;marker:none;marker-start:none;marker-mid:none;marker-end:none;stroke-miterlimit:10.43299961;stroke-dasharray:none;stroke-dashoffset:0;stroke-opacity:1;visibility:visible;display:inline;overflow:visible"
   id="path2904" />
<path
   d="M 335.19,387.49 L 335.39,387.77 L 335.58,388.05 L 335.76,388.34 L 335.93,388.62 L 336.1,388.92 L 336.26,389.21 L 336.41,389.5 L 336.55,389.8 L 336.68,390.1 L 336.8,390.4 L 336.91,390.71 L 337.02,391.02 L 337.11,391.32 L 337.19,391.63 L 337.25,391.95 L 337.31,392.26 C 337.07,391.07 336.43,390.04 335.82,388.95 C 332.46,386.84 335.5,390.21 335.82,391.49 C 332.2,386.94 335.32,388.76 335.19,387.49 z "
   style="color:#000000;fill:#ffffff;fill-opacity:1;fill-rule:nonzero;stroke:none;stroke-width:0;stroke-linecap:butt;stroke-linejoin:miter;marker:none;marker-start:none;marker-mid:none;marker-end:none;stroke-miterlimit:10.43299961;stroke-dasharray:none;stroke-dashoffset:0;stroke-opacity:1;visibility:visible;display:inline;overflow:visible"
   id="path2906" />
<path
   d="M 338.75,396.76 L 338.75,396.83 L 338.76,396.91 L 338.76,396.98 L 338.77,397.05 L 338.77,397.12 L 338.77,397.19 L 338.78,397.25 L 338.78,397.32 L 338.78,397.38 L 338.78,397.44 L 338.78,397.5 L 338.78,397.56 L 338.79,397.62 L 338.79,397.67 L 338.79,397.73 L 338.78,397.78 L 338.78,397.83 L 338.78,397.88 L 338.78,397.93 L 338.78,397.98 L 338.78,398.02 L 338.78,398.07 L 338.77,398.11 L 338.77,398.15 L 338.77,398.2 L 338.76,398.24 L 338.76,398.27 L 338.76,398.31 L 338.75,398.35 L 338.75,398.38 L 338.74,398.42 L 338.74,398.45 L 338.73,398.48 L 338.73,398.51 L 338.72,398.54 L 338.72,398.57 L 338.71,398.59 L 338.7,398.62 L 338.7,398.64 L 338.69,398.67 L 338.68,398.69 L 338.68,398.71 L 338.67,398.73 L 338.66,398.75 L 338.65,398.77 L 338.65,398.78 L 338.64,398.8 L 338.63,398.81 L 338.62,398.83 L 338.61,398.84 L 338.59,398.86 L 338.58,398.88 L 338.56,398.9 L 338.54,398.91 L 338.52,398.92 L 338.5,398.92 L 338.48,398.92 L 338.46,398.92 L 338.44,398.91 L 338.41,398.91 L 338.39,398.89 L 338.37,398.88 L 338.35,398.86 L 338.32,398.84 L 338.3,398.82 L 338.28,398.8 L 338.26,398.77 L 338.23,398.74 L 338.21,398.71 L 338.19,398.67 L 338.17,398.64 L 338.14,398.6 L 338.12,398.56 L 338.1,398.52 L 338.08,398.47 L 338.06,398.43 L 338.04,398.38 L 338.01,398.33 L 337.99,398.28 L 337.97,398.23 L 337.96,398.18 L 337.94,398.13 L 337.92,398.07 L 337.9,398.02 L 337.88,397.96 L 337.85,397.85 L 337.82,397.73 C 338.16,397.56 338.43,395.45 338.75,396.76 z "
   style="color:#000000;fill:#ffffff;fill-opacity:1;fill-rule:nonzero;stroke:none;stroke-width:0;stroke-linecap:butt;stroke-linejoin:miter;marker:none;marker-start:none;marker-mid:none;marker-end:none;stroke-miterlimit:10.43299961;stroke-dasharray:none;stroke-dashoffset:0;stroke-opacity:1;visibility:visible;display:inline;overflow:visible"
   id="path2908" />
<path
   d="M 318.73,440.98 L 318.91,440.95 L 319.09,440.92 L 319.28,440.89 L 319.46,440.86 L 319.54,440.85 L 319.63,440.83 L 319.72,440.82 L 319.8,440.8 L 319.88,440.79 L 319.96,440.77 L 320.03,440.76 L 320.11,440.74 L 320.18,440.73 L 320.24,440.71 L 320.3,440.69 L 320.36,440.68 L 320.42,440.66 L 320.46,440.64 L 320.51,440.63 L 320.55,440.61 L 320.58,440.59 L 320.61,440.57 L 320.62,440.56 L 320.63,440.55 L 320.64,440.54 L 320.65,440.54 L 320.65,440.53 L 320.66,440.52 L 320.66,440.51 L 320.66,440.5 L 320.66,440.48 L 320.66,440.47 L 320.65,440.46 L 320.64,440.45 C 321.7,440.68 321.93,440.89 318.73,440.98 z "
   style="color:#000000;fill:#ffffff;fill-opacity:1;fill-rule:nonzero;stroke:none;stroke-width:0;stroke-linecap:butt;stroke-linejoin:miter;marker:none;marker-start:none;marker-mid:none;marker-end:none;stroke-miterlimit:10.43299961;stroke-dasharray:none;stroke-dashoffset:0;stroke-opacity:1;visibility:visible;display:inline;overflow:visible"
   id="path2910" />
<polygon
   points="320.64,440.45 319.97,440.31 320.6,440.37 320.64,440.45 "
   style="color:#000000;fill:#ffffff;fill-opacity:1;fill-rule:nonzero;stroke:none;stroke-width:0;stroke-linecap:butt;stroke-linejoin:miter;marker:none;marker-start:none;marker-mid:none;marker-end:none;stroke-miterlimit:10.43299961;stroke-dasharray:none;stroke-dashoffset:0;stroke-opacity:1;visibility:visible;display:inline;overflow:visible"
   id="polygon2912" />
<path
   d="M 350.55,395.53 L 350.56,395.26 L 350.56,395 L 350.55,394.75 L 350.54,394.5 L 350.53,394.27 L 350.51,394.03 L 350.48,393.81 L 350.45,393.59 L 350.41,393.38 L 350.37,393.16 L 350.33,392.96 L 350.28,392.76 L 350.18,392.36 L 350.06,391.97 L 349.93,391.59 L 349.79,391.2 L 349.64,390.82 L 349.48,390.43 L 349.32,390.03 L 349.16,389.61 L 349.08,389.39 L 349,389.17 L 348.92,388.95 L 348.84,388.72 L 347.29,387.94 C 346.02,385.47 347.41,386.38 346.5,384.41 C 344.51,382.64 340.48,378.89 339.19,378.55 C 338.24,378.57 339.82,379.66 340.03,380.09 C 337.38,378.27 337.9,377.35 333.84,376.24 L 333.72,376.51 C 323.7,371.79 309.79,381.13 309.97,393.88 C 309.86,393.07 309.66,393.27 309.44,392.94 C 308.93,399.5 312.47,406.09 318.45,408.77 C 324.3,411.67 331.15,410.48 335.34,406.58 C 333.04,409.59 328.46,412.79 323.03,412.49 C 317.71,412.4 312.74,409.02 311.08,405.36 C 308.36,403.64 308.04,398.75 306.86,397.85 C 305.26,386.11 309.86,381.04 317.64,375.08 C 318.87,374.25 317.98,374.13 318.15,373.5 C 315.57,374.71 313.2,376.54 311.25,378.77 C 312.29,377.27 313.4,375.79 314.84,374.64 C 312.4,375.46 309.14,380.55 308.2,380.75 C 312.4,373.23 325.25,367.56 331.98,370.37 C 328.86,370.26 324.91,370.31 321.41,371.6 C 319.94,372.36 317.94,373.92 318.3,374.21 C 327.48,370.79 336.96,371.62 344.91,377.98 C 346.93,379.56 349.14,382.24 349.78,382.27 C 348.82,380.83 349.94,381.58 349.2,380.3 C 351.21,383.55 348.33,381.63 351.29,385.91 L 352.38,384.41 C 351.97,387.11 355.73,390.38 355.34,394.64 C 356.2,395.95 356.3,393.24 355.39,390.24 C 356.66,393.57 355.73,394.11 356.05,396.85 C 356.4,395.93 356.86,394.95 357.1,393.97 C 356.27,397.19 357.95,399.39 358.36,401.26 C 357.95,401.44 357.09,399.84 356.89,403.64 C 356.92,405.29 357.35,404.5 357.52,404.91 C 357.19,405.09 356.34,406.36 355.82,408.78 C 356.2,409.35 356.82,407.3 357.34,407.22 C 357.01,409.15 356.44,410.62 356.42,412.1 C 354.93,415.21 355.89,411.69 354.68,413.44 C 353.1,418.39 356,414.59 356.2,416.84 C 358.6,413.35 359.97,407.95 360.6,405.72 C 360.12,408.44 359.34,411.09 358.39,413.64 C 359.13,413.33 357.22,419.25 359.35,415.33 C 357.07,423.68 349.63,431.48 342.78,435.15 C 343.62,434.38 344.68,433.42 344.3,433.27 C 340.89,435.3 341.49,435.45 341,436.31 C 338.23,437.44 338.05,436.22 336.21,436.31 C 330.98,439.08 329.97,438.79 325.16,440.52 L 325.38,439.5 C 321.91,440.66 321.34,439.06 317.59,439.5 C 317.36,439.68 318.79,440.14 319.97,440.31 C 316.62,439.87 316.77,440.97 313.5,440.19 C 314.3,440.76 315.16,441.13 316.02,441.61 C 313.29,441.45 309.5,440.02 310.67,441.32 C 306.21,439.33 298.3,436.54 293.86,432.38 L 293.72,433.31 C 291.68,430.87 284.84,426.02 284.3,422.85 L 283.75,422.72 C 282.7,420.93 282.01,418.9 281.17,417.05 C 279.79,414.69 279.14,416.14 279.34,415.77 C 276.61,410.25 275.26,405.61 274.09,401.8 C 274.93,400.56 274.11,394.31 274.43,389.31 C 273.06,364.6 291.77,340.62 312.21,335.08 C 315.21,334.01 319.66,334.05 323.46,333.94 C 318.98,335.22 318.41,334.62 314.05,336.14 C 310.91,337.62 310.22,339.31 307.99,341.24 L 308.87,339.68 C 304.51,341.23 306.33,341.59 302.78,342.72 L 303.72,343.95 C 302.31,344.05 299.97,346.33 299.34,347.59 L 297.79,347.53 C 295.93,349.83 294.94,351.48 295.01,352.77 L 294.51,351.88 C 293.94,352.85 287.67,360.48 290.92,358.7 C 290.32,359.26 289.51,359.6 288.64,361.19 L 289.3,361.95 C 287.74,363.96 286.42,366.55 286.52,367.41 C 287.36,366.28 287.94,366.07 288.51,365.88 C 284.55,375.69 284.33,366.41 281.34,375.87 L 281.97,375.92 C 281.48,376.65 281.19,377.45 280.8,378.23 L 281.07,380.98 C 278.23,384.27 280.28,394.98 280.69,400.85 C 280.97,403.24 283.07,405.78 284.66,409.77 L 283.69,409.94 C 285.54,413.17 294.27,422.93 298.32,422.43 C 300.28,424.89 297.93,422.43 297.55,423.05 C 301.85,427.51 303.2,426.2 306.11,427 C 309.24,428.86 303.42,426.27 304.9,427.71 C 310.32,429.09 308.74,430.85 315.8,431.55 C 316.55,431.13 314.07,430.9 313.45,430.35 C 317.96,432.56 327.73,432.05 334.07,429.12 C 341.43,425.69 349.7,415.52 350.02,405.95 L 350.39,405.86 C 350.21,402.05 350.98,397.66 349.64,393.62 L 350.55,395.53 z "
   style="color:#000000;fill:#ffffff;fill-opacity:1;fill-rule:nonzero;stroke:none;stroke-width:0;stroke-linecap:butt;stroke-linejoin:miter;marker:none;marker-start:none;marker-mid:none;marker-end:none;stroke-miterlimit:10.43299961;stroke-dasharray:none;stroke-dashoffset:0;stroke-opacity:1;visibility:visible;display:inline;overflow:visible"
   id="path2914" />
<path
   d="M 305.93,382.62 L 305.68,381.36 C 306.86,379.76 307.8,378.02 309.3,376.77 C 308.22,378.88 307.41,379.76 305.93,382.62 z "
   style="color:#000000;fill:#ffffff;fill-opacity:1;fill-rule:nonzero;stroke:none;stroke-width:0;stroke-linecap:butt;stroke-linejoin:miter;marker:none;marker-start:none;marker-mid:none;marker-end:none;stroke-miterlimit:10.43299961;stroke-dasharray:none;stroke-dashoffset:0;stroke-opacity:1;visibility:visible;display:inline;overflow:visible"
   id="path2916" />
<path
   d="M 308.72,382.73 L 308.61,382.86 L 308.5,383 L 308.4,383.13 L 308.3,383.27 L 308.2,383.42 L 308.11,383.56 L 308.02,383.71 L 307.94,383.85 L 307.86,384.01 L 307.78,384.16 L 307.62,384.46 L 307.47,384.77 L 307.31,385.08 C 307.71,383.62 308.52,382.38 309.27,381.1 L 308.72,382.73 z "
   style="color:#000000;fill:#ffffff;fill-opacity:1;fill-rule:nonzero;stroke:none;stroke-width:0;stroke-linecap:butt;stroke-linejoin:miter;marker:none;marker-start:none;marker-mid:none;marker-end:none;stroke-miterlimit:10.43299961;stroke-dasharray:none;stroke-dashoffset:0;stroke-opacity:1;visibility:visible;display:inline;overflow:visible"
   id="path2918" />
<path
   d="M 358.12,393.47 L 357.86,392.81 C 357.38,389.37 356.34,385.97 354.73,382.81 C 356.5,386.14 357.64,389.78 358.12,393.47 z "
   style="color:#000000;fill:#ffffff;fill-opacity:1;fill-rule:nonzero;stroke:none;stroke-width:0;stroke-linecap:butt;stroke-linejoin:miter;marker:none;marker-start:none;marker-mid:none;marker-end:none;stroke-miterlimit:10.43299961;stroke-dasharray:none;stroke-dashoffset:0;stroke-opacity:1;visibility:visible;display:inline;overflow:visible"
   id="path2920" />
<path
   d="M 319.09,441.85 L 319.2,441.89 L 319.32,441.92 L 319.44,441.96 L 319.57,441.99 L 319.69,442.01 L 319.82,442.04 L 319.95,442.06 L 320.08,442.08 L 320.36,442.11 L 320.63,442.14 L 320.91,442.16 L 321.19,442.17 L 321.76,442.21 L 322.04,442.22 L 322.32,442.24 L 322.59,442.27 L 322.86,442.3 L 322.98,442.32 L 323.11,442.34 L 323.24,442.36 L 323.36,442.39 C 321.68,442.24 320.01,442.16 318.36,441.95 L 319.09,441.85 z "
   style="color:#000000;fill:#ffffff;fill-opacity:1;fill-rule:nonzero;stroke:none;stroke-width:0;stroke-linecap:butt;stroke-linejoin:miter;marker:none;marker-start:none;marker-mid:none;marker-end:none;stroke-miterlimit:10.43299961;stroke-dasharray:none;stroke-dashoffset:0;stroke-opacity:1;visibility:visible;display:inline;overflow:visible"
   id="path2922" />
<path
   d="M 276.43,419.17 L 276.44,419.05 L 276.45,418.93 L 276.45,418.81 L 276.45,418.7 L 276.45,418.59 L 276.45,418.48 L 276.44,418.38 L 276.43,418.27 L 276.42,418.17 L 276.41,418.07 L 276.39,417.98 L 276.37,417.88 L 276.35,417.79 L 276.33,417.71 L 276.31,417.62 L 276.28,417.54 L 276.26,417.46 L 276.23,417.38 L 276.2,417.31 L 276.18,417.24 L 276.15,417.17 L 276.12,417.1 L 276.09,417.04 L 276.07,416.98 L 276.04,416.92 L 276.01,416.87 L 275.98,416.82 L 275.96,416.77 L 275.93,416.72 L 275.91,416.68 L 275.89,416.64 L 275.87,416.61 L 275.85,416.58 L 275.83,416.55 L 275.81,416.52 L 275.8,416.5 L 275.79,416.48 L 275.78,416.46 L 275.77,416.45 L 275.77,416.44 L 275.77,416.43 L 275.77,416.43 L 275.77,416.43 L 275.78,416.43 L 275.8,416.44 L 275.81,416.45 L 275.83,416.47 L 275.86,416.49 L 275.88,416.51 L 275.92,416.53 L 275.93,416.55 L 275.95,416.56 L 275.97,416.58 L 276,416.59 L 276.02,416.61 L 276.04,416.63 L 276.07,416.65 L 276.09,416.67 L 276.12,416.69 L 276.15,416.71 L 276.18,416.74 L 276.21,416.76 L 276.25,416.79 L 276.28,416.81 L 276.32,416.84 L 276.36,416.87 L 276.39,416.9 L 276.43,416.93 L 276.48,416.96 L 276.52,416.99 L 276.57,417.02 L 276.61,417.05 L 276.66,417.09 L 276.71,417.12 L 276.76,417.16 L 276.81,417.2 L 276.87,417.24 L 276.93,417.28 C 278.23,420.23 276.41,418.09 276.43,419.17 z "
   style="color:#000000;fill:#ffffff;fill-opacity:1;fill-rule:nonzero;stroke:none;stroke-width:0;stroke-linecap:butt;stroke-linejoin:miter;marker:none;marker-start:none;marker-mid:none;marker-end:none;stroke-miterlimit:10.43299961;stroke-dasharray:none;stroke-dashoffset:0;stroke-opacity:1;visibility:visible;display:inline;overflow:visible"
   id="path2924" />
<path
   d="M 273.56,407.17 L 273.61,407.33 L 273.66,407.49 L 273.71,407.64 L 273.75,407.79 L 273.79,407.93 L 273.83,408.07 L 273.87,408.21 L 273.9,408.35 L 273.94,408.48 L 273.97,408.61 L 274,408.73 L 274.03,408.86 L 274.05,408.98 L 274.08,409.1 L 274.13,409.33 L 274.17,409.55 L 274.21,409.76 L 274.25,409.97 L 274.29,410.17 L 274.33,410.37 L 274.36,410.56 L 274.4,410.75 L 274.44,410.94 C 272.88,408.95 273.72,408.52 273.56,407.17 z "
   style="color:#000000;fill:#ffffff;fill-opacity:1;fill-rule:nonzero;stroke:none;stroke-width:0;stroke-linecap:butt;stroke-linejoin:miter;marker:none;marker-start:none;marker-mid:none;marker-end:none;stroke-miterlimit:10.43299961;stroke-dasharray:none;stroke-dashoffset:0;stroke-opacity:1;visibility:visible;display:inline;overflow:visible"
   id="path2926" />
</g></svg>
